<svg width="20" height="20" viewBox="0 0 20 20" fill="none" xmlns="http://www.w3.org/2000/svg">
<path d="M7 16C7.28333 16 7.521 15.904 7.713 15.712C7.905 15.52 8.00067 15.2827 8 15C8 14.7167 7.904 14.4793 7.712 14.288C7.52 14.0967 7.28267 14.0007 7 14C6.71667 14 6.47933 14.096 6.288 14.288C6.09667 14.48 6.00067 14.7173 6 15C6 15.2833 6.096 15.521 6.288 15.713C6.48 15.905 6.71733 16.0007 7 16ZM10 16C10.2833 16 10.521 15.904 10.713 15.712C10.905 15.52 11.0007 15.2827 11 15C11 14.7167 10.904 14.4793 10.712 14.288C10.52 14.0967 10.2827 14.0007 10 14C9.71667 14 9.47933 14.096 9.288 14.288C9.09667 14.48 9.00067 14.7173 9 15C9 15.2833 9.096 15.521 9.288 15.713C9.48 15.905 9.71733 16.0007 10 16ZM13 16C13.2833 16 13.521 15.904 13.713 15.712C13.905 15.52 14.0007 15.2827 14 15C14 14.7167 13.904 14.4793 13.712 14.288C13.52 14.0967 13.2827 14.0007 13 14C12.7167 14 12.4793 14.096 12.288 14.288C12.0967 14.48 12.0007 14.7173 12 15C12 15.2833 12.096 15.521 12.288 15.713C12.48 15.905 12.7173 16.0007 13 16ZM7 13C7.28333 13 7.521 12.904 7.713 12.712C7.905 12.52 8.00067 12.2827 8 12C8 11.7167 7.904 11.4793 7.712 11.288C7.52 11.0967 7.28267 11.0007 7 11C6.71667 11 6.47933 11.096 6.288 11.288C6.09667 11.48 6.00067 11.7173 6 12C6 12.2833 6.096 12.521 6.288 12.713C6.48 12.905 6.71733 13.0007 7 13ZM10 13C10.2833 13 10.521 12.904 10.713 12.712C10.905 12.52 11.0007 12.2827 11 12C11 11.7167 10.904 11.4793 10.712 11.288C10.52 11.0967 10.2827 11.0007 10 11C9.71667 11 9.47933 11.096 9.288 11.288C9.09667 11.48 9.00067 11.7173 9 12C9 12.2833 9.096 12.521 9.288 12.713C9.48 12.905 9.71733 13.0007 10 13ZM13 13C13.2833 13 13.521 12.904 13.713 12.712C13.905 12.52 14.0007 12.2827 14 12C14 11.7167 13.904 11.4793 13.712 11.288C13.52 11.0967 13.2827 11.0007 13 11C12.7167 11 12.4793 11.096 12.288 11.288C12.0967 11.48 12.0007 11.7173 12 12C12 12.2833 12.096 12.521 12.288 12.713C12.48 12.905 12.7173 13.0007 13 13ZM5 10H15V9C15 7.61667 14.5123 6.43767 13.537 5.463C12.5617 4.48833 11.3827 4.00067 10 4C8.61667 4 7.43767 4.48767 6.463 5.463C5.48833 6.43833 5.00067 7.61733 5 9V10ZM6.55 8.5C6.68333 7.65 7.071 6.93767 7.713 6.363C8.355 5.78833 9.11733 5.50067 10 5.5C10.8833 5.5 11.646 5.78767 12.288 6.363C12.93 6.93833 13.3173 7.65067 13.45 8.5H6.55ZM2 20C1.45 20 0.979333 19.8043 0.588 19.413C0.196667 19.0217 0.000666667 18.5507 0 18V2C0 1.45 0.196 0.979333 0.588 0.588C0.98 0.196667 1.45067 0.000666667 2 0H18C18.55 0 19.021 0.196 19.413 0.588C19.805 0.98 20.0007 1.45067 20 2V18C20 18.55 19.8043 19.021 19.413 19.413C19.0217 19.805 18.5507 20.0007 18 20H2ZM2 18H18V2H2V18Z" fill="#D8BA62"/>
</svg>
