<svg width="22" height="18" viewBox="0 0 22 18" fill="none" xmlns="http://www.w3.org/2000/svg">
<path d="M18 17V15.5M4 17V15.5" stroke="#D8BA62" stroke-width="1.5" stroke-linecap="round"/>
<path d="M20 9C20 5.229 20 3.343 18.828 2.172C17.657 1 15.771 1 12 1H10C6.229 1 4.343 1 3.172 2.172C2 3.343 2 5.229 2 9M1 12C1 11.068 1 10.602 1.152 10.235C1.25251 9.99218 1.3999 9.77155 1.58572 9.58572C1.77155 9.3999 1.99218 9.25251 2.235 9.152C2.602 9 3.068 9 4 9H18C18.932 9 19.398 9 19.765 9.152C20.0078 9.25251 20.2284 9.3999 20.4143 9.58572C20.6001 9.77155 20.7475 9.99218 20.848 10.235C21 10.602 21 11.068 21 12C21 12.932 21 13.398 20.848 13.765C20.7475 14.0078 20.6001 14.2284 20.4143 14.4143C20.2284 14.6001 20.0078 14.7475 19.765 14.848C19.398 15 18.932 15 18 15H4C3.068 15 2.602 15 2.235 14.848C1.99218 14.7475 1.77155 14.6001 1.58572 14.4143C1.3999 14.2284 1.25251 14.0078 1.152 13.765C1 13.398 1 12.932 1 12Z" stroke="#D8BA62" stroke-width="1.5"/>
<path d="M17.5 9V7.5C17.5 5.614 17.5 4.672 16.914 4.086C16.328 3.5 15.386 3.5 13.5 3.5H8.5C6.614 3.5 5.672 3.5 5.086 4.086C4.5 4.672 4.5 5.614 4.5 7.5V9M11 4V9" stroke="#D8BA62" stroke-width="1.5"/>
</svg>
