<svg width="40" height="39" viewBox="0 0 40 39" fill="none" xmlns="http://www.w3.org/2000/svg">
<path fill-rule="evenodd" clip-rule="evenodd" d="M20.2393 38.5C9.78516 38.5 1.30664 29.9585 1.30664 19.5C1.30664 9.0415 9.78516 0.5 20.2393 0.5C30.6934 0.5 39.1719 9.0415 39.1719 19.5C39.1719 29.9585 30.6934 38.5 20.2393 38.5ZM0.806641 19.5C0.806641 8.76758 9.50684 0 20.2393 0C30.9717 0 39.6719 8.76758 39.6719 19.5C39.6719 30.2324 30.9717 39 20.2393 39C9.50684 39 0.806641 30.2324 0.806641 19.5ZM24.5869 17.4854L24.0703 20.562L21.3555 20.5625V28H17.7158V20.5625H14.7578V17.4858H17.7158V15.1411C17.7158 12.4736 19.4551 11 22.1162 11C23.3906 11 24.7236 11.2075 24.7236 11.2075V13.8267H23.2539C21.8066 13.8267 21.3555 14.6475 21.3555 15.4893V17.4854H24.5869Z" fill="#1976D2"/>
</svg>
