<svg width="59" height="60" viewBox="0 0 59 60" fill="none" xmlns="http://www.w3.org/2000/svg">
<path d="M50.2875 14.1627C50.2179 14.1016 50.1438 14.0458 50.0659 13.9958L30.4968 1.49247C30.2242 1.31834 29.9078 1.22543 29.5844 1.22461C29.2609 1.2238 28.944 1.31511 28.6706 1.48786L8.88226 13.9912C8.80777 14.0382 8.74026 14.0896 8.67677 14.1431C8.17307 14.2841 7.80322 14.7453 7.80322 15.2939V57.7499C7.80322 58.4105 8.33872 58.946 8.99932 58.946H49.9015C50.5621 58.946 51.0976 58.4105 51.0976 57.7499V15.2939C51.0975 14.7686 50.7584 14.3234 50.2875 14.1627Z" fill="#D1CFC3"/>
<path d="M53.0322 59.3833C52.8202 59.3833 52.6168 59.2991 52.4668 59.1492C52.3169 58.9992 52.2327 58.7959 52.2327 58.5838V36.0344C52.2327 35.8223 52.3169 35.619 52.4668 35.469C52.6168 35.3191 52.8202 35.2349 53.0322 35.2349C53.2442 35.2349 53.4476 35.3191 53.5976 35.469C53.7475 35.619 53.8317 35.8223 53.8317 36.0344V58.5838C53.8317 58.7958 53.7474 58.9992 53.5975 59.1491C53.4476 59.2991 53.2442 59.3833 53.0322 59.3833ZM6.11651 58.7827V53.6359C6.11834 53.5298 6.09901 53.4243 6.05965 53.3257C6.0203 53.2271 5.96171 53.1374 5.88729 53.0617C5.81288 52.986 5.72414 52.9258 5.62624 52.8848C5.52835 52.8438 5.42326 52.8226 5.3171 52.8226C5.21095 52.8226 5.10586 52.8438 5.00797 52.8848C4.91007 52.9258 4.82133 52.986 4.74691 53.0617C4.6725 53.1374 4.61391 53.2271 4.57455 53.3257C4.5352 53.4243 4.51587 53.5298 4.5177 53.6359V58.7827C4.51587 58.8888 4.5352 58.9943 4.57455 59.0928C4.61391 59.1914 4.6725 59.2812 4.74691 59.3569C4.82133 59.4326 4.91007 59.4927 5.00797 59.5338C5.10586 59.5748 5.21095 59.596 5.3171 59.596C5.42326 59.596 5.52835 59.5748 5.62624 59.5338C5.72414 59.4927 5.81288 59.4326 5.88729 59.3569C5.96171 59.2812 6.0203 59.1914 6.05965 59.0928C6.09901 58.9943 6.11834 58.8888 6.11651 58.7827Z" fill="#8E6049"/>
<path d="M59 47.3547C59 50.6508 56.328 53.3229 53.0318 53.3229C49.7357 53.3229 47.0637 50.6508 47.0637 47.3547C47.0637 44.0586 49.7357 41.3865 53.0318 41.3865C56.328 41.3865 59 44.0586 59 47.3547ZM53.0318 31.4072C50.8107 31.4072 49.0102 33.2078 49.0102 35.4289C49.0102 37.65 50.8107 39.4505 53.0318 39.4505C55.2529 39.4505 57.0535 37.65 57.0535 35.4289C57.0535 33.2078 55.2529 31.4072 53.0318 31.4072ZM5.60289 33.8663C5.48956 33.8288 5.36994 33.8139 5.25087 33.8225C5.13179 33.8312 5.01559 33.8632 4.90889 33.9168C4.80219 33.9704 4.70709 34.0444 4.62901 34.1348C4.55094 34.2251 4.49141 34.3299 4.45385 34.4432C4.45385 34.4432 4.3602 34.7256 4.20567 35.2198C4.12586 35.4669 4.038 35.7669 3.93301 36.1111L3.76712 36.6592L3.5913 37.267C3.47046 37.6905 3.33283 38.1494 3.19946 38.6348L2.7796 40.1613C2.63109 40.6908 2.4924 41.2379 2.34342 41.7938L1.91137 43.4793C1.77114 44.044 1.6263 44.6089 1.49328 45.1648C1.35897 45.7208 1.22347 46.2679 1.10073 46.7973C0.977175 47.3268 0.853262 47.8387 0.743892 48.3239L0.432216 49.6917C0.331832 50.1152 0.271767 50.5035 0.246109 50.8477C0.220215 51.1919 0.22459 51.4919 0.248238 51.739C0.269875 51.9861 0.307593 52.1802 0.340936 52.3125C0.373806 52.4449 0.403011 52.5156 0.403011 52.5156C0.925505 53.7663 1.92923 54.8329 3.28034 55.3929C5.99414 56.5176 9.10569 55.2294 10.2304 52.5156C10.2304 52.5156 10.2596 52.445 10.2924 52.3125C10.3258 52.1802 10.3635 51.9861 10.3851 51.739C10.4088 51.4919 10.4133 51.1919 10.3873 50.8477C10.3616 50.5035 10.3015 50.1153 10.2012 49.6917L9.88949 48.3239C9.78012 47.8385 9.65621 47.3268 9.53265 46.7973C9.40992 46.2679 9.27442 45.7208 9.1401 45.1648C9.00708 44.6089 8.86236 44.0442 8.72201 43.4793L8.28996 41.7938C8.14098 41.2379 8.00229 40.6908 7.85378 40.1613L7.43392 38.6348C7.30067 38.1494 7.16304 37.6905 7.04208 37.267L6.86626 36.6592L6.70037 36.1111C6.59538 35.7669 6.50764 35.4669 6.42771 35.2198C6.27306 34.7257 6.17941 34.4432 6.17941 34.4432C6.09145 34.1823 5.88453 33.9596 5.60289 33.8663Z" fill="#29A53B"/>
<path d="M23.7583 43.48H35.5068V58.9459H23.7583V43.48Z" fill="#2B3B47"/>
<path d="M6.07768 17.3105H8.06586C8.23088 17.3105 8.39267 17.2647 8.53325 17.1783L29.4155 4.33348C29.5578 4.24596 29.7217 4.20014 29.8887 4.20123C30.0557 4.20231 30.219 4.25027 30.3601 4.33963L50.6247 17.1721C50.7674 17.2626 50.9329 17.3106 51.1019 17.3106H52.8935C53.7801 17.3106 54.1237 16.1574 53.3818 15.672L30.3801 0.62506C30.237 0.531384 30.0699 0.480861 29.8988 0.47952C29.7277 0.478178 29.5599 0.526073 29.4153 0.617493L5.60118 15.6644C4.84552 16.1418 5.1838 17.3105 6.07768 17.3105Z" fill="#FF473E"/>
<path d="M19.5044 50.8593H15.4763C15.2505 50.8593 15.034 50.7696 14.8743 50.6099C14.7147 50.4503 14.625 50.2337 14.625 50.008V48.4685C14.625 48.2427 14.7147 48.0262 14.8743 47.8665C15.034 47.7069 15.2505 47.6172 15.4763 47.6172H19.5044C19.7302 47.6172 19.9468 47.7069 20.1064 47.8665C20.2661 48.0262 20.3558 48.2427 20.3558 48.4685V50.008C20.3558 50.2337 20.2661 50.4503 20.1064 50.6099C19.9468 50.7696 19.7302 50.8593 19.5044 50.8593ZM33.724 50.8583C33.1853 50.8583 32.7485 51.295 32.7485 51.8338C32.7485 52.3726 33.1852 52.8093 33.724 52.8093C34.2628 52.8093 34.6995 52.3726 34.6995 51.8338C34.6995 51.295 34.2627 50.8583 33.724 50.8583Z" fill="#E2A042"/>
<path d="M22.7168 19.9885V29.6519C22.7168 29.8777 22.6271 30.0942 22.4674 30.2539C22.3078 30.4135 22.0912 30.5032 21.8654 30.5032H17.1379C16.9122 30.5032 16.6956 30.4135 16.536 30.2539C16.3763 30.0942 16.2866 29.8777 16.2866 29.6519V19.9885C16.2866 19.7627 16.3763 19.5462 16.536 19.3866C16.6956 19.2269 16.9122 19.1372 17.1379 19.1372H21.8654C22.0912 19.1372 22.3078 19.2269 22.4674 19.3866C22.6271 19.5462 22.7168 19.7627 22.7168 19.9885ZM42.0761 19.1372H37.3486C37.1228 19.1372 36.9063 19.2269 36.7466 19.3866C36.587 19.5462 36.4973 19.7627 36.4973 19.9885V29.6519C36.4973 29.8777 36.587 30.0942 36.7466 30.2539C36.9063 30.4135 37.1228 30.5032 37.3486 30.5032H42.0761C42.3019 30.5032 42.5184 30.4135 42.6781 30.2539C42.8377 30.0942 42.9274 29.8777 42.9274 29.6519V19.9885C42.9274 19.7627 42.8377 19.5462 42.6781 19.3866C42.5184 19.2269 42.3019 19.1372 42.0761 19.1372Z" fill="#464A4C"/>
<path d="M23.0519 32.028H15.9519C15.7261 32.028 15.5096 31.9383 15.3499 31.7787C15.1903 31.619 15.1006 31.4025 15.1006 31.1767V30.5647C15.1006 30.3389 15.1903 30.1224 15.3499 29.9627C15.5096 29.8031 15.7261 29.7134 15.9519 29.7134H23.0519C23.2776 29.7134 23.4942 29.8031 23.6538 29.9627C23.8135 30.1224 23.9032 30.3389 23.9032 30.5647V31.1767C23.9032 31.4025 23.8135 31.619 23.6538 31.7787C23.4942 31.9383 23.2776 32.028 23.0519 32.028ZM44.1138 31.1767V30.5647C44.1138 30.3389 44.0242 30.1224 43.8645 29.9627C43.7048 29.8031 43.4883 29.7134 43.2625 29.7134H36.1626C35.9368 29.7134 35.7203 29.8031 35.5606 29.9627C35.4009 30.1224 35.3113 30.3389 35.3113 30.5647V31.1767C35.3113 31.4025 35.4009 31.619 35.5606 31.7787C35.7203 31.9383 35.9368 32.028 36.1626 32.028H43.2625C43.4883 32.028 43.7048 31.9383 43.8645 31.7787C44.0242 31.619 44.1138 31.4025 44.1138 31.1767ZM36.8067 44.531C37.8669 44.531 38.6245 43.5341 38.386 42.5013C37.4659 38.5173 33.8961 35.5472 29.6325 35.5472C25.369 35.5472 21.799 38.5173 20.879 42.5013C20.6405 43.5342 21.3982 44.531 22.4583 44.531H36.8067Z" fill="#8E7B70"/>
</svg>
