<svg width="40" height="39" viewBox="0 0 40 39" fill="none" xmlns="http://www.w3.org/2000/svg">
<path fill-rule="evenodd" clip-rule="evenodd" d="M19.7646 38.5C9.31055 38.5 0.832031 29.9585 0.832031 19.5C0.832031 9.0415 9.31055 0.5 19.7646 0.5C30.2188 0.5 38.6973 9.0415 38.6973 19.5C38.6973 29.9585 30.2188 38.5 19.7646 38.5ZM0.332031 19.5C0.332031 8.76758 9.03223 0 19.7646 0C30.4971 0 39.1973 8.76758 39.1973 19.5C39.1973 30.2324 30.4971 39 19.7646 39C9.03223 39 0.332031 30.2324 0.332031 19.5ZM15.6846 16.5542V26H12.4805V16.5542H15.6846ZM15.376 14.8179C15.0635 15.0947 14.6221 15.2637 14.083 15.2637H14.0615C12.9863 15.2637 12.291 14.5386 12.291 13.6318C12.291 12.7051 13.0078 12 14.1035 12C15.2002 12 15.875 12.7051 15.8955 13.6318C15.8955 14.1011 15.71 14.5215 15.376 14.8179ZM20.6621 26H17.458C17.458 26 17.5 17.4404 17.458 16.5542H20.6621V17.8911C21.0879 17.2476 21.8506 16.3325 23.5498 16.3325C25.6582 16.3325 27.2393 17.6826 27.2393 20.584V26H24.0352V20.9468C24.0352 19.6768 23.5713 18.8105 22.4121 18.8105C21.5264 18.8105 20.999 19.395 20.7676 19.959C20.6826 20.1606 20.6621 20.4429 20.6621 20.7251V26Z" fill="#1976D2"/>
</svg>
