<svg width="68" height="68" viewBox="0 0 68 68" fill="none" xmlns="http://www.w3.org/2000/svg">
<rect width="68" height="68" rx="34" fill="url(#paint0_linear_318_3)"/>
<path fill-rule="evenodd" clip-rule="evenodd" d="M16 28.7711V38.2289C16 42.6894 16 44.9178 17.4015 46.3042C18.673 47.5622 20.6511 47.6769 24.382 47.6886C24.3718 47.6206 24.3621 47.5526 24.3529 47.4844C24.1296 45.8433 24.1296 43.7589 24.1296 41.1708V41.0678C24.1296 40.2842 24.7722 39.6483 25.5661 39.6483C26.3581 39.6483 27.0006 40.2842 27.0006 41.0678C27.0006 43.7822 27.0026 45.6761 27.1967 47.1053C27.3869 48.4936 27.7305 49.2306 28.2605 49.7536C28.7904 50.2786 29.5339 50.6189 30.9374 50.8036C32.3816 50.9981 34.2975 51 37.0443 51H38.9564C41.7031 51 43.6171 50.9961 45.0633 50.8056C46.4668 50.6189 47.2102 50.2767 47.7382 49.7536C48.2682 49.2286 48.6137 48.4936 48.802 47.1053C48.9961 45.6781 49 43.7822 49 41.0678V25.9322C49 23.2158 48.9961 21.3239 48.802 19.8928C48.6137 18.5064 48.2682 17.7694 47.7402 17.2483C47.2102 16.7233 46.4668 16.3811 45.0614 16.1944C43.6171 16.0039 41.7031 16 38.9564 16H37.0443C34.2975 16 32.3816 16.0039 30.9374 16.1944C29.5339 16.3811 28.7904 16.7233 28.2605 17.2464C27.7305 17.7714 27.3869 18.5064 27.1967 19.8947C27.0026 21.3219 27.0006 23.2158 27.0006 25.9322C27.0006 26.7158 26.3581 27.3517 25.5642 27.3517C25.3769 27.3529 25.1912 27.3172 25.0177 27.2466C24.8442 27.1759 24.6864 27.0717 24.5531 26.9398C24.4199 26.808 24.3139 26.6512 24.2413 26.4783C24.1686 26.3054 24.1307 26.1198 24.1296 25.9322V25.8292C24.1296 23.2431 24.1296 21.1567 24.3529 19.5156L24.382 19.3114C20.6511 19.3231 18.6749 19.4378 17.4015 20.6958C16 22.0822 16 24.3125 16 28.7711ZM35.1885 39.2322L39.9716 34.5033C40.1047 34.3725 40.2104 34.2163 40.2826 34.0441C40.3548 33.8718 40.392 33.6868 40.392 33.5C40.392 33.3132 40.3548 33.1282 40.2826 32.9559C40.2104 32.7837 40.1047 32.6275 39.9716 32.4967L35.1885 27.7678C34.9178 27.5016 34.5536 27.3526 34.1743 27.3526C33.7949 27.3526 33.4307 27.5016 33.16 27.7678C33.0269 27.8986 32.9211 28.0548 32.849 28.2271C32.7768 28.3993 32.7396 28.5843 32.7396 28.7711C32.7396 28.9579 32.7768 29.1429 32.849 29.3152C32.9211 29.4874 33.0269 29.6436 33.16 29.7744L35.4933 32.0806H21.7401C21.5526 32.079 21.3667 32.1145 21.193 32.1851C21.0193 32.2556 20.8612 32.3598 20.7278 32.4917C20.5943 32.6235 20.4882 32.7805 20.4154 32.9535C20.3426 33.1265 20.3046 33.3122 20.3036 33.5C20.3036 34.2836 20.9461 34.9194 21.7401 34.9194H35.4933L33.16 37.2256C33.0269 37.3564 32.9211 37.5126 32.849 37.6848C32.7768 37.8571 32.7396 38.0421 32.7396 38.2289C32.7396 38.4157 32.7768 38.6007 32.849 38.7729C32.9211 38.9452 33.0269 39.1014 33.16 39.2322C33.4307 39.4984 33.7949 39.6474 34.1743 39.6474C34.5536 39.6474 34.9178 39.4984 35.1885 39.2322Z" fill="white"/>
<defs>
<linearGradient id="paint0_linear_318_3" x1="1.22523" y1="34" x2="68" y2="34" gradientUnits="userSpaceOnUse">
<stop stop-color="#1976D2"/>
<stop offset="1" stop-color="#0F579E"/>
</linearGradient>
</defs>
</svg>
