<svg width="45" height="45" viewBox="0 0 45 45" fill="none" xmlns="http://www.w3.org/2000/svg">
<path d="M0 22.5C0 10.1166 10.0387 0 22.4221 0C34.8056 0 44.8443 10.1166 44.8443 22.5C44.8443 34.8834 34.8056 45 22.4221 45C10.0387 45 0 34.8834 0 22.5Z" fill="#1976D2"/>
<path d="M15.1065 13.5106C14.8741 13.0122 15.0738 12.8151 15.5716 13.0814L33.2642 22.5462C33.7543 22.8087 33.7482 23.2322 33.2723 23.4815L15.735 32.6643C15.2497 32.9197 15.0274 32.7109 15.2366 32.2028L18.6173 24.0282L28.5159 22.873L18.6909 21.2007L15.1065 13.5106Z" fill="white"/>
</svg>
