<svg width="49" height="49" viewBox="0 0 49 49" fill="none" xmlns="http://www.w3.org/2000/svg">
<circle cx="24.5" cy="24.5" r="24.5" fill="url(#paint0_linear_109_51)"/>
<path d="M25.7742 13.905C26.147 13.5231 26.6524 13.3086 27.1795 13.3086C27.7066 13.3086 28.212 13.5231 28.5848 13.905L37.5294 23.072C37.902 23.454 38.1113 23.9721 38.1113 24.5122C38.1113 25.0524 37.902 25.5705 37.5294 25.9525L28.5848 35.1195C28.2099 35.4905 27.7078 35.6959 27.1867 35.6912C26.6655 35.6866 26.167 35.4723 25.7984 35.0947C25.4299 34.717 25.2208 34.206 25.2163 33.6719C25.2118 33.1378 25.4121 32.6232 25.7742 32.239L31.1549 26.5494H12.2719C11.7447 26.5494 11.2391 26.3347 10.8664 25.9527C10.4936 25.5707 10.2842 25.0525 10.2842 24.5122C10.2842 23.972 10.4936 23.4538 10.8664 23.0718C11.2391 22.6898 11.7447 22.4751 12.2719 22.4751H31.1549L25.7742 16.7855C25.4016 16.4035 25.1922 15.8854 25.1922 15.3453C25.1922 14.8051 25.4016 14.287 25.7742 13.905Z" fill="white"/>
<defs>
<linearGradient id="paint0_linear_109_51" x1="24.5" y1="0" x2="24.5" y2="49" gradientUnits="userSpaceOnUse">
<stop stop-color="#CFB05C"/>
<stop offset="1" stop-color="#9F7A3F"/>
</linearGradient>
</defs>
</svg>
