<svg width="40" height="39" viewBox="0 0 40 39" fill="none" xmlns="http://www.w3.org/2000/svg">
<path fill-rule="evenodd" clip-rule="evenodd" d="M20.0039 38.5C9.5498 38.5 1.07129 29.9585 1.07129 19.5C1.07129 9.0415 9.5498 0.5 20.0039 0.5C30.458 0.5 38.9365 9.0415 38.9365 19.5C38.9365 29.9585 30.458 38.5 20.0039 38.5ZM0.571289 19.5C0.571289 8.76758 9.27148 0 20.0039 0C30.7363 0 39.4365 8.76758 39.4365 19.5C39.4365 30.2324 30.7363 39 20.0039 39C9.27148 39 0.571289 30.2324 0.571289 19.5ZM26.5498 15.2065C27.2871 15.1182 27.9883 14.9219 28.6416 14.6318C28.1514 15.3677 27.5361 16.0078 26.8242 16.5244C26.8311 16.6816 26.835 16.8398 26.835 16.9971C26.835 21.8262 23.1719 27.3945 16.4727 27.3945C14.4932 27.3965 12.5557 26.8267 10.8906 25.7524C11.1787 25.7866 11.4697 25.8037 11.7598 25.8037C13.4004 25.8062 14.9932 25.2549 16.2832 24.2383C15.8789 24.231 15.4814 24.1562 15.1064 24.0195C14.7764 23.8989 14.4629 23.7305 14.1768 23.5176C13.5664 23.0625 13.1133 22.4277 12.8809 21.7017C13.4268 21.8057 13.9893 21.7842 14.5254 21.6387C13.8936 21.5107 13.3105 21.2178 12.833 20.7939C12.6875 20.6646 12.5518 20.5229 12.4277 20.3701C12.1201 19.9922 11.8926 19.5591 11.7559 19.0977C11.6562 18.7617 11.6045 18.4106 11.6045 18.0552V18.0083C12.1104 18.29 12.6758 18.4468 13.2539 18.4653C12.8721 18.2095 12.543 17.8843 12.2822 17.5073C12.2031 17.3921 12.1299 17.272 12.0635 17.1479C11.8887 16.8188 11.7656 16.4663 11.6973 16.1025C11.6553 15.8794 11.6338 15.6519 11.6338 15.4233C11.6338 14.7549 11.8135 14.1274 12.127 13.5859C13.041 14.7148 14.1816 15.6382 15.4756 16.2964C16.7686 16.9541 18.1855 17.332 19.6328 17.4048C19.4502 16.6211 19.5293 15.7983 19.8604 15.0645C20.1904 14.3306 20.7529 13.7271 21.46 13.3467C22.168 12.9668 22.9805 12.832 23.7725 12.9629C24.5635 13.0938 25.29 13.4829 25.8389 14.0708C26.6543 13.9102 27.4365 13.6104 28.1514 13.1846C27.9775 13.7271 27.6807 14.2173 27.29 14.6196C27.0713 14.8447 26.8232 15.0425 26.5498 15.2065Z" fill="#1976D2"/>
</svg>
