<svg width="39" height="39" viewBox="0 0 39 39" fill="none" xmlns="http://www.w3.org/2000/svg">
<path fill-rule="evenodd" clip-rule="evenodd" d="M0.59668 19.5C0.59668 29.9585 9.0752 38.5 19.5293 38.5C29.9829 38.5 38.4619 29.9585 38.4619 19.5C38.4619 9.0415 29.9829 0.5 19.5293 0.5C9.0752 0.5 0.59668 9.0415 0.59668 19.5ZM19.5293 0C8.79688 0 0.0966797 8.76758 0.0966797 19.5C0.0966797 30.2324 8.79688 39 19.5293 39C30.2617 39 38.9619 30.2324 38.9619 19.5C38.9619 8.76758 30.2617 0 19.5293 0ZM16.2622 22C16.0903 21.1499 16.0024 20.2764 16 19.3999C16.002 18.9199 16.0288 18.4414 16.0811 17.9668C16.1172 17.6421 16.165 17.3198 16.2241 17H19V22H16.2622ZM21 17H23.7817C23.856 17.4067 23.9116 17.8184 23.9478 18.2329C23.9819 18.6201 23.9995 19.0098 24 19.3999C23.9907 20.2778 23.8965 21.1509 23.7188 22H21V17ZM15 11.6011C16.48 10.5571 18.2202 10 20 10C22.3867 10 24.6763 11.001 26.3638 12.7827C28.0518 14.564 29 16.9805 29 19.5C29 21.3789 28.4722 23.2158 27.4834 24.7778C26.4941 26.3403 25.0889 27.5576 23.4443 28.2769C21.7998 28.9961 19.9902 29.1841 18.2441 28.8174C16.4985 28.4507 14.8945 27.5459 13.6362 26.2173C12.3774 24.8887 11.52 23.1963 11.1729 21.3535C10.8257 19.5107 11.0039 17.6006 11.6851 15.8647C12.3662 14.1284 13.52 12.645 15 11.6011ZM24.8374 23.4839H26.8735C27.0605 23.1445 27.2241 22.7915 27.3633 22.4272H25.1133C25.3232 21.4673 25.4307 20.4854 25.4336 19.5C25.4336 18.582 25.3413 17.6665 25.1582 16.7686H27.4419C27.3237 16.4004 27.1807 16.041 27.0142 15.6938H24.8936C24.4902 14.291 23.8687 12.9688 23.0542 11.7812C22.5342 11.5625 21.9927 11.4028 21.4399 11.3062C22.5562 12.5728 23.3989 14.0801 23.9092 15.7236H20.4839V11.1875H19.5332V15.7061H16.1074C16.6191 14.0596 17.4634 12.5503 18.5825 11.2827C18.0288 11.3867 17.4878 11.5542 16.9683 11.7812C16.1489 12.9775 15.5254 14.3101 15.123 15.7236H12.98C12.8135 16.0708 12.6709 16.4302 12.5527 16.7983H14.853C14.6738 17.6865 14.5835 18.5918 14.583 19.5C14.5894 20.4795 14.6987 21.4556 14.9092 22.4092H12.6592C12.7905 22.7788 12.9468 23.1382 13.1265 23.4839H15.1963C15.5786 24.7666 16.1479 25.9785 16.8838 27.0762C17.4146 27.3184 17.9692 27.4976 18.5376 27.6108C17.4976 26.417 16.6978 25.0132 16.186 23.4839H19.5332V27.7173H20.4839V23.4722H23.814C23.3018 24.999 22.5015 26.4009 21.4624 27.5928C22.043 27.4785 22.6089 27.2954 23.1499 27.0464C23.8833 25.958 24.4526 24.7563 24.8374 23.4839Z" fill="#1976D2"/>
</svg>
